<?xml version="1.0" encoding="utf-8"?>
<!-- Generator: Adobe Illustrator 16.0.0, SVG Export Plug-In . SVG Version: 6.00 Build 0)  -->
<!DOCTYPE svg PUBLIC "-//W3C//DTD SVG 1.0//EN" "http://www.w3.org/TR/2001/REC-SVG-20010904/DTD/svg10.dtd">
<svg version="1.0" id="Layer_1" xmlns="http://www.w3.org/2000/svg" xmlns:xlink="http://www.w3.org/1999/xlink" x="0px" y="0px"
	 width="100px" height="100px" viewBox="0 0 100 100" enable-background="new 0 0 100 100" xml:space="preserve">
<path fill="#03A9F4" d="M76.666,56.667V50H90v26.667c0,3.685-2.98,6.666-6.667,6.666h-6.667v-6.666h6.667v-20H76.666z"/>
<path fill="#03A9F4" d="M23.333,76.667v6.666h-6.667c-3.686,0-6.666-2.981-6.666-6.666V50h13.333v6.667h-6.667v20H23.333z"/>
<path fill="#03A9F4" d="M83.333,10H16.666C13.001,10,10,13.001,10,16.667v6.666C10,27.002,13.001,30,16.666,30h66.667
	C86.999,30,90,27.002,90,23.333v-6.666C90,13.001,86.999,10,83.333,10z M23.333,23.333h-6.667v-6.666h6.667V23.333z M70,23.333H30
	v-6.666h40V23.333z M83.333,23.333h-6.667v-6.666h6.667V23.333z"/>
<path fill="#90A4AE" d="M70,30v7.565c-12.204,7.649-27.807,7.649-40,0V30h-6.667v53.333C23.333,86.999,26.335,90,30,90h40
	c3.665,0,6.666-3.001,6.666-6.667V30H70z M70,83.333H30v-6.666h40V83.333z M70,70H30V45.188c5.156,2.63,10.788,4.238,16.666,4.676
	v6.804h6.667v-6.801c5.876-0.439,11.511-2.048,16.667-4.679V70z"/>
</svg>
